<?xml version="1.0" encoding="UTF-8"?>
<svg xmlns="http://www.w3.org/2000/svg" width="1200" height="1200" viewBox="0 0 1200 1200" role="img" aria-label="器械胸推 正确示范">
  <defs>
    <linearGradient id="machine-chest-press-proper-bg-gradient" x1="0%" y1="0%" x2="100%" y2="100%">
      <stop offset="0%" stop-color="#10141b" />
      <stop offset="100%" stop-color="#1b2330" />
    </linearGradient>
    <radialGradient id="machine-chest-press-proper-glow-gradient" cx="50%" cy="42%" r="62%">
      <stop offset="0%" stop-color="rgba(34, 197, 94, 0.18)" />
      <stop offset="100%" stop-color="rgba(255,255,255,0)" />
    </radialGradient>
    <filter id="machine-chest-press-proper-soft-shadow" x="-20%" y="-20%" width="140%" height="140%">
      <feDropShadow dx="0" dy="20" stdDeviation="24" flood-color="rgba(0,0,0,0.28)" />
    </filter>
  </defs>
  <style>
    .title { font: 700 56px 'Segoe UI', 'Microsoft YaHei', sans-serif; fill: #f8fafc; }
    .subtitle { font: 500 26px 'Segoe UI', 'Microsoft YaHei', sans-serif; fill: #c8d4e0; }
    .pill { fill: rgba(255,255,255,0.08); stroke: rgba(255,255,255,0.12); stroke-width: 2; }
    .pill-text { font: 700 28px 'Segoe UI', 'Microsoft YaHei', sans-serif; fill: #22c55e; }
    .ground { fill: rgba(255,255,255,0.06); }
    .machine { fill: rgba(88, 102, 121, 0.92); stroke: rgba(196, 211, 224, 0.2); stroke-width: 4; }
    .machine-detail { fill: rgba(153, 170, 189, 0.85); }
    .body-core { fill: rgba(232, 239, 246, 0.96); stroke: rgba(209, 222, 235, 0.95); stroke-width: 18; stroke-linecap: round; stroke-linejoin: round; }
    .body-line { stroke: rgba(232, 239, 246, 0.96); stroke-width: 44; stroke-linecap: round; stroke-linejoin: round; fill: none; }
    .joint { fill: rgba(248, 250, 252, 0.98); }
    .joint-outline { fill: none; stroke: rgba(193, 210, 226, 0.7); stroke-width: 4; }
    .highlight { fill: rgba(34, 197, 94, 0.18); stroke: #22c55e; stroke-width: 4; }
    .good-line { stroke: #22c55e; }
    .bad-line { stroke: #ef4444; }
    .guide-line { fill: none; stroke-width: 10; stroke-linecap: round; stroke-linejoin: round; }
    .guide-dash { fill: none; stroke: rgba(248, 250, 252, 0.7); stroke-width: 6; stroke-dasharray: 16 14; }
    .caption { font: 600 26px 'Segoe UI', 'Microsoft YaHei', sans-serif; fill: #e7eef6; }
    .accent-copy { font: 600 24px 'Segoe UI', 'Microsoft YaHei', sans-serif; fill: #22c55e; }
  </style>
  <rect width="1200" height="1200" fill="url(#machine-chest-press-proper-bg-gradient)" />
  <rect x="36" y="36" width="1128" height="1128" rx="40" fill="rgba(255,255,255,0.04)" stroke="rgba(255,255,255,0.08)" stroke-width="2" />
  <ellipse cx="600" cy="650" rx="320" ry="340" fill="url(#machine-chest-press-proper-glow-gradient)" />
  <text class="title" x="72" y="118">器械胸推</text>
  <text class="subtitle" x="72" y="162">胸肌 · 肱三头肌 · 前三角</text>
  <g transform="translate(72 204)">
    <rect class="pill" width="188" height="60" rx="30" />
    <text class="pill-text" x="34" y="39">正确示范</text>
  </g>
  <ellipse class="ground" cx="600" cy="1034" rx="230" ry="34" />
  <g class="stage-figure" filter="url(#machine-chest-press-proper-soft-shadow)">
    <g class="figure-equipment">
      
      <rect class="machine" x="394" y="410" width="108" height="372" rx="44" />
      <rect class="machine" x="464" y="760" width="266" height="38" rx="19" />
      <rect class="machine" x="574" y="310" width="160" height="126" rx="36" />
      <line class="machine" x1="744" y1="456" x2="818" y2="420" style="stroke-width: 18; stroke-linecap: round;" />
      <line class="machine" x1="744" y1="560" x2="818" y2="596" style="stroke-width: 18; stroke-linecap: round;" />
    
    </g>
    <g class="figure-highlights">
      <ellipse class="highlight" cx="632" cy="450" rx="148" ry="106" opacity="0.72" /><ellipse class="highlight" cx="752" cy="504" rx="88" ry="70" opacity="0.46" />
    </g>
    <g class="figure-guides">
      <line class="guide-line good-line" x1="650" y1="450" x2="810" y2="450" opacity="0.74" />
    </g>
    <g class="figure-body">
      
    <path class="body-core" d="M 550 398 L 612 430 L 620 594 L 556 562 Z" />
    <line class="body-line" x1="584" y1="320" x2="588" y2="578" />
    <line class="body-line" x1="550" y1="398" x2="662" y2="438" /><line class="body-line" x1="662" y1="438" x2="756" y2="430" /><line class="body-line" x1="612" y1="430" x2="676" y2="534" /><line class="body-line" x1="676" y1="534" x2="758" y2="548" /><line class="body-line" x1="556" y1="562" x2="520" y2="756" /><line class="body-line" x1="520" y1="756" x2="474" y2="970" /><line class="body-line" x1="620" y1="594" x2="640" y2="760" /><line class="body-line" x1="640" y1="760" x2="672" y2="972" />
    <circle class="body-core" cx="570" cy="246" r="64" />
    
      <circle class="joint" cx="550" cy="398" r="19" />
      <circle class="joint-outline" cx="550" cy="398" r="19" />
      <circle class="joint" cx="612" cy="430" r="19" />
      <circle class="joint-outline" cx="612" cy="430" r="19" />
      <circle class="joint" cx="662" cy="438" r="19" />
      <circle class="joint-outline" cx="662" cy="438" r="19" />
      <circle class="joint" cx="676" cy="534" r="19" />
      <circle class="joint-outline" cx="676" cy="534" r="19" />
      <circle class="joint" cx="756" cy="430" r="19" />
      <circle class="joint-outline" cx="756" cy="430" r="19" />
      <circle class="joint" cx="758" cy="548" r="19" />
      <circle class="joint-outline" cx="758" cy="548" r="19" />
      <circle class="joint" cx="556" cy="562" r="19" />
      <circle class="joint-outline" cx="556" cy="562" r="19" />
      <circle class="joint" cx="620" cy="594" r="19" />
      <circle class="joint-outline" cx="620" cy="594" r="19" />
      <circle class="joint" cx="520" cy="756" r="19" />
      <circle class="joint-outline" cx="520" cy="756" r="19" />
      <circle class="joint" cx="640" cy="760" r="19" />
      <circle class="joint-outline" cx="640" cy="760" r="19" />
      <circle class="joint" cx="474" cy="970" r="19" />
      <circle class="joint-outline" cx="474" cy="970" r="19" />
      <circle class="joint" cx="672" cy="972" r="19" />
      <circle class="joint-outline" cx="672" cy="972" r="19" />
  
    </g>
  </g>
  <text class="caption" x="72" y="1092">手腕保持中立，肩膀下沉，胸口主动把把手推远。</text>
  <text class="accent-copy" x="72" y="1136">回程要受控，不要让配重反弹。</text>
</svg>