<?xml version="1.0" encoding="UTF-8"?>
<svg xmlns="http://www.w3.org/2000/svg" width="1200" height="1200" viewBox="0 0 1200 1200" role="img" aria-label="徒手深蹲 正确示范">
  <defs>
    <linearGradient id="bodyweight-squat-proper-bg-gradient" x1="0%" y1="0%" x2="100%" y2="100%">
      <stop offset="0%" stop-color="#10141b" />
      <stop offset="100%" stop-color="#1b2330" />
    </linearGradient>
    <radialGradient id="bodyweight-squat-proper-glow-gradient" cx="50%" cy="42%" r="62%">
      <stop offset="0%" stop-color="rgba(34, 197, 94, 0.18)" />
      <stop offset="100%" stop-color="rgba(255,255,255,0)" />
    </radialGradient>
    <filter id="bodyweight-squat-proper-soft-shadow" x="-20%" y="-20%" width="140%" height="140%">
      <feDropShadow dx="0" dy="20" stdDeviation="24" flood-color="rgba(0,0,0,0.28)" />
    </filter>
  </defs>
  <style>
    .title { font: 700 56px 'Segoe UI', 'Microsoft YaHei', sans-serif; fill: #f8fafc; }
    .subtitle { font: 500 26px 'Segoe UI', 'Microsoft YaHei', sans-serif; fill: #c8d4e0; }
    .pill { fill: rgba(255,255,255,0.08); stroke: rgba(255,255,255,0.12); stroke-width: 2; }
    .pill-text { font: 700 28px 'Segoe UI', 'Microsoft YaHei', sans-serif; fill: #22c55e; }
    .ground { fill: rgba(255,255,255,0.06); }
    .machine { fill: rgba(88, 102, 121, 0.92); stroke: rgba(196, 211, 224, 0.2); stroke-width: 4; }
    .machine-detail { fill: rgba(153, 170, 189, 0.85); }
    .body-core { fill: rgba(232, 239, 246, 0.96); stroke: rgba(209, 222, 235, 0.95); stroke-width: 18; stroke-linecap: round; stroke-linejoin: round; }
    .body-line { stroke: rgba(232, 239, 246, 0.96); stroke-width: 44; stroke-linecap: round; stroke-linejoin: round; fill: none; }
    .joint { fill: rgba(248, 250, 252, 0.98); }
    .joint-outline { fill: none; stroke: rgba(193, 210, 226, 0.7); stroke-width: 4; }
    .highlight { fill: rgba(34, 197, 94, 0.18); stroke: #22c55e; stroke-width: 4; }
    .good-line { stroke: #22c55e; }
    .bad-line { stroke: #ef4444; }
    .guide-line { fill: none; stroke-width: 10; stroke-linecap: round; stroke-linejoin: round; }
    .guide-dash { fill: none; stroke: rgba(248, 250, 252, 0.7); stroke-width: 6; stroke-dasharray: 16 14; }
    .caption { font: 600 26px 'Segoe UI', 'Microsoft YaHei', sans-serif; fill: #e7eef6; }
    .accent-copy { font: 600 24px 'Segoe UI', 'Microsoft YaHei', sans-serif; fill: #22c55e; }
  </style>
  <rect width="1200" height="1200" fill="url(#bodyweight-squat-proper-bg-gradient)" />
  <rect x="36" y="36" width="1128" height="1128" rx="40" fill="rgba(255,255,255,0.04)" stroke="rgba(255,255,255,0.08)" stroke-width="2" />
  <ellipse cx="600" cy="650" rx="320" ry="340" fill="url(#bodyweight-squat-proper-glow-gradient)" />
  <text class="title" x="72" y="118">徒手深蹲</text>
  <text class="subtitle" x="72" y="162">股四头肌 · 臀部 · 核心</text>
  <g transform="translate(72 204)">
    <rect class="pill" width="188" height="60" rx="30" />
    <text class="pill-text" x="34" y="39">正确示范</text>
  </g>
  <ellipse class="ground" cx="600" cy="1034" rx="230" ry="34" />
  <g class="stage-figure" filter="url(#bodyweight-squat-proper-soft-shadow)">
    <g class="figure-equipment">
      
    </g>
    <g class="figure-highlights">
      <ellipse class="highlight" cx="560" cy="742" rx="92" ry="152" opacity="0.68" /><ellipse class="highlight" cx="642" cy="742" rx="92" ry="152" opacity="0.68" /><ellipse class="highlight" cx="600" cy="516" rx="90" ry="98" opacity="0.48" />
    </g>
    <g class="figure-guides">
      <path class="guide-dash" d="M 472 882 L 520 704 L 548 550" opacity="0.52" /><path class="guide-dash" d="M 728 882 L 682 704 L 652 550" opacity="0.52" />
    </g>
    <g class="figure-body">
      
    <path class="body-core" d="M 528 330 L 672 330 L 652 522 L 548 522 Z" />
    <line class="body-line" x1="600" y1="284" x2="600" y2="522" />
    <line class="body-line" x1="528" y1="330" x2="490" y2="450" /><line class="body-line" x1="490" y1="450" x2="522" y2="564" /><line class="body-line" x1="672" y1="330" x2="710" y2="450" /><line class="body-line" x1="710" y1="450" x2="678" y2="564" /><line class="body-line" x1="548" y1="522" x2="512" y2="750" /><line class="body-line" x1="512" y1="750" x2="470" y2="962" /><line class="body-line" x1="652" y1="522" x2="688" y2="750" /><line class="body-line" x1="688" y1="750" x2="730" y2="962" />
    <circle class="body-core" cx="600" cy="208" r="64" />
    
      <circle class="joint" cx="528" cy="330" r="19" />
      <circle class="joint-outline" cx="528" cy="330" r="19" />
      <circle class="joint" cx="672" cy="330" r="19" />
      <circle class="joint-outline" cx="672" cy="330" r="19" />
      <circle class="joint" cx="490" cy="450" r="19" />
      <circle class="joint-outline" cx="490" cy="450" r="19" />
      <circle class="joint" cx="710" cy="450" r="19" />
      <circle class="joint-outline" cx="710" cy="450" r="19" />
      <circle class="joint" cx="522" cy="564" r="19" />
      <circle class="joint-outline" cx="522" cy="564" r="19" />
      <circle class="joint" cx="678" cy="564" r="19" />
      <circle class="joint-outline" cx="678" cy="564" r="19" />
      <circle class="joint" cx="548" cy="522" r="19" />
      <circle class="joint-outline" cx="548" cy="522" r="19" />
      <circle class="joint" cx="652" cy="522" r="19" />
      <circle class="joint-outline" cx="652" cy="522" r="19" />
      <circle class="joint" cx="512" cy="750" r="19" />
      <circle class="joint-outline" cx="512" cy="750" r="19" />
      <circle class="joint" cx="688" cy="750" r="19" />
      <circle class="joint-outline" cx="688" cy="750" r="19" />
      <circle class="joint" cx="470" cy="962" r="19" />
      <circle class="joint-outline" cx="470" cy="962" r="19" />
      <circle class="joint" cx="730" cy="962" r="19" />
      <circle class="joint-outline" cx="730" cy="962" r="19" />
  
    </g>
  </g>
  <text class="caption" x="72" y="1092">臀部向后坐，膝盖和脚尖同向。</text>
  <text class="accent-copy" x="72" y="1136">下蹲深度服从稳定，不要先追求更深。</text>
</svg>