<?xml version="1.0" encoding="UTF-8"?>
<svg xmlns="http://www.w3.org/2000/svg" width="1200" height="1200" viewBox="0 0 1200 1200" role="img" aria-label="平板支撑 常见错误">
  <defs>
    <linearGradient id="plank-mistake-bg-gradient" x1="0%" y1="0%" x2="100%" y2="100%">
      <stop offset="0%" stop-color="#10141b" />
      <stop offset="100%" stop-color="#1b2330" />
    </linearGradient>
    <radialGradient id="plank-mistake-glow-gradient" cx="50%" cy="42%" r="62%">
      <stop offset="0%" stop-color="rgba(239, 68, 68, 0.18)" />
      <stop offset="100%" stop-color="rgba(255,255,255,0)" />
    </radialGradient>
    <filter id="plank-mistake-soft-shadow" x="-20%" y="-20%" width="140%" height="140%">
      <feDropShadow dx="0" dy="20" stdDeviation="24" flood-color="rgba(0,0,0,0.28)" />
    </filter>
  </defs>
  <style>
    .title { font: 700 56px 'Segoe UI', 'Microsoft YaHei', sans-serif; fill: #f8fafc; }
    .subtitle { font: 500 26px 'Segoe UI', 'Microsoft YaHei', sans-serif; fill: #c8d4e0; }
    .pill { fill: rgba(255,255,255,0.08); stroke: rgba(255,255,255,0.12); stroke-width: 2; }
    .pill-text { font: 700 28px 'Segoe UI', 'Microsoft YaHei', sans-serif; fill: #ef4444; }
    .ground { fill: rgba(255,255,255,0.06); }
    .machine { fill: rgba(88, 102, 121, 0.92); stroke: rgba(196, 211, 224, 0.2); stroke-width: 4; }
    .machine-detail { fill: rgba(153, 170, 189, 0.85); }
    .body-core { fill: rgba(232, 239, 246, 0.96); stroke: rgba(209, 222, 235, 0.95); stroke-width: 18; stroke-linecap: round; stroke-linejoin: round; }
    .body-line { stroke: rgba(232, 239, 246, 0.96); stroke-width: 44; stroke-linecap: round; stroke-linejoin: round; fill: none; }
    .joint { fill: rgba(248, 250, 252, 0.98); }
    .joint-outline { fill: none; stroke: rgba(193, 210, 226, 0.7); stroke-width: 4; }
    .highlight { fill: rgba(239, 68, 68, 0.18); stroke: #ef4444; stroke-width: 4; }
    .good-line { stroke: #22c55e; }
    .bad-line { stroke: #ef4444; }
    .guide-line { fill: none; stroke-width: 10; stroke-linecap: round; stroke-linejoin: round; }
    .guide-dash { fill: none; stroke: rgba(248, 250, 252, 0.7); stroke-width: 6; stroke-dasharray: 16 14; }
    .caption { font: 600 26px 'Segoe UI', 'Microsoft YaHei', sans-serif; fill: #e7eef6; }
    .accent-copy { font: 600 24px 'Segoe UI', 'Microsoft YaHei', sans-serif; fill: #ef4444; }
  </style>
  <rect width="1200" height="1200" fill="url(#plank-mistake-bg-gradient)" />
  <rect x="36" y="36" width="1128" height="1128" rx="40" fill="rgba(255,255,255,0.04)" stroke="rgba(255,255,255,0.08)" stroke-width="2" />
  <ellipse cx="600" cy="650" rx="320" ry="340" fill="url(#plank-mistake-glow-gradient)" />
  <text class="title" x="72" y="118">平板支撑</text>
  <text class="subtitle" x="72" y="162">核心 · 肩部稳定肌 · 臀部</text>
  <g transform="translate(72 204)">
    <rect class="pill" width="188" height="60" rx="30" />
    <text class="pill-text" x="34" y="39">常见错误</text>
  </g>
  <ellipse class="ground" cx="600" cy="1034" rx="230" ry="34" />
  <g class="stage-figure" filter="url(#plank-mistake-soft-shadow)">
    <g class="figure-equipment">
      <path class="machine" d="M 248 962 L 952 962" />
    </g>
    <g class="figure-highlights">
      <ellipse class="highlight" cx="626" cy="726" rx="176" ry="92" opacity="0.84" />
    </g>
    <g class="figure-guides">
      <path class="guide-line bad-line" d="M 324 716 C 538 624, 692 806, 922 646" opacity="0.8" />
    </g>
    <g class="figure-body">
      
    <path class="body-core" d="M 758 626 L 754 688 L 632 804 L 632 736 Z" />
    <line class="body-line" x1="856" y1="620" x2="632" y2="770" />
    <line class="body-line" x1="758" y1="626" x2="698" y2="662" /><line class="body-line" x1="698" y1="662" x2="662" y2="730" /><line class="body-line" x1="754" y1="688" x2="700" y2="724" /><line class="body-line" x1="700" y1="724" x2="666" y2="792" /><line class="body-line" x1="632" y1="736" x2="474" y2="694" /><line class="body-line" x1="474" y1="694" x2="324" y2="664" /><line class="body-line" x1="632" y1="804" x2="476" y2="760" /><line class="body-line" x1="476" y1="760" x2="330" y2="730" />
    <circle class="body-core" cx="918" cy="612" r="64" />
    
      <circle class="joint" cx="758" cy="626" r="19" />
      <circle class="joint-outline" cx="758" cy="626" r="19" />
      <circle class="joint" cx="754" cy="688" r="19" />
      <circle class="joint-outline" cx="754" cy="688" r="19" />
      <circle class="joint" cx="698" cy="662" r="19" />
      <circle class="joint-outline" cx="698" cy="662" r="19" />
      <circle class="joint" cx="700" cy="724" r="19" />
      <circle class="joint-outline" cx="700" cy="724" r="19" />
      <circle class="joint" cx="662" cy="730" r="19" />
      <circle class="joint-outline" cx="662" cy="730" r="19" />
      <circle class="joint" cx="666" cy="792" r="19" />
      <circle class="joint-outline" cx="666" cy="792" r="19" />
      <circle class="joint" cx="632" cy="736" r="19" />
      <circle class="joint-outline" cx="632" cy="736" r="19" />
      <circle class="joint" cx="632" cy="804" r="19" />
      <circle class="joint-outline" cx="632" cy="804" r="19" />
      <circle class="joint" cx="474" cy="694" r="19" />
      <circle class="joint-outline" cx="474" cy="694" r="19" />
      <circle class="joint" cx="476" cy="760" r="19" />
      <circle class="joint-outline" cx="476" cy="760" r="19" />
      <circle class="joint" cx="324" cy="664" r="19" />
      <circle class="joint-outline" cx="324" cy="664" r="19" />
      <circle class="joint" cx="330" cy="730" r="19" />
      <circle class="joint-outline" cx="330" cy="730" r="19" />
  
    </g>
  </g>
  <text class="caption" x="72" y="1092">错误：塌腰或臀部过高，核心失去张力。</text>
  <text class="accent-copy" x="72" y="1136">不稳时改成跪姿或缩短保持时间。</text>
</svg>